<svg xmlns="http://www.w3.org/2000/svg" width="31" height="45" viewBox="0 0 31 45">
  <defs>
    <style>
      .cls-1 {
        fill: #fff;
        fill-rule: evenodd;
      }
    </style>
  </defs>
  <path id="clacl.svg" class="cls-1" d="M554.118,1251.28a1.311,1.311,0,0,1-.028.17,1.741,1.741,0,0,1-.144.62,3.2,3.2,0,0,1-3.227,1.94l-0.136-.03a1.783,1.783,0,0,1-.241.03c-7.384-.01-14.767-0.13-22.15-0.26a0.355,0.355,0,0,1-.1-0.02,0.742,0.742,0,0,1-.15.02,3.87,3.87,0,0,1-3.857-3.16,1.647,1.647,0,0,1-.022-0.42,1.382,1.382,0,0,1-.022-0.18c-0.216-9.99.453-19.96,0.378-29.94a0.016,0.016,0,0,0,0-.01,0.034,0.034,0,0,1,0-.01c0-.13,0-0.25,0-0.38a1.482,1.482,0,0,1,.03-0.31c0.076-1.76.093-3.52,0.1-5.29a1.837,1.837,0,0,1-.125-0.49,4.3,4.3,0,0,1,.762-3.21,3.661,3.661,0,0,1,2.887-1.2c0.05,0,.093.01,0.14,0.01s0.072-.01.112-0.01c7.637-.02,15.272-0.35,22.906,0a0.543,0.543,0,0,1,.127.02,1.42,1.42,0,0,1,.459.02,4.085,4.085,0,0,1,3.144,2.98,1.454,1.454,0,0,1,.032.42,1.567,1.567,0,0,1,.014.19C554.76,1225.61,554.969,1238.46,554.118,1251.28Zm-1.677-38.71c-0.023-.04-0.1-0.19-0.105-0.2a0.487,0.487,0,0,1-.041-0.07,0.47,0.47,0,0,1-.041-0.04,1.071,1.071,0,0,1-.158-0.16,2.079,2.079,0,0,0-.223-0.14c-0.013-.01-0.187-0.09-0.207-0.1a2.769,2.769,0,0,0-.386-0.12h-0.057c-7.634-.35-15.269-0.01-22.906,0-0.049,0-.092-0.01-0.138-0.01s-0.073.01-.114,0.01a2,2,0,0,0-.811.14c0.2-.08-0.12.15-0.111,0.11a0.218,0.218,0,0,1-.092.1c-0.022.04-.044,0.07-0.064,0.11-0.006.02-.013,0.04-0.023,0.07a1.449,1.449,0,0,1-.059.25c-0.013.17-.015,0.35-0.011,0.52a1.293,1.293,0,0,1,.165.65c0,2.11-.013,4.23-0.126,6.34,0.077,9.99-.594,19.97-0.378,29.96,0,0.03,0,.06-0.006.09a1.893,1.893,0,0,0,.158.46c0.006,0.01.14,0.18,0.149,0.2a0.547,0.547,0,0,1,.125.13,1.487,1.487,0,0,0,.958.28,0.362,0.362,0,0,1,.1.02,0.733,0.733,0,0,1,.149-0.02c7.383,0.13,14.766.26,22.15,0.26a0.455,0.455,0,0,1,.116.02,0.762,0.762,0,0,1,.261-0.02,1.5,1.5,0,0,0,.366.02h0.039c0.074-.03.22-0.08,0.157-0.04l0.109-.06a0.223,0.223,0,0,0,.048-0.03,0.364,0.364,0,0,0,.032-0.04c0.03-.03.057-0.06,0.084-0.09a0.928,0.928,0,0,1,.058-0.1c0.835-12.75.632-25.53,0.87-38.29a0.426,0.426,0,0,1,.006-0.05A1.635,1.635,0,0,0,552.441,1212.57Zm-3.251,11.55a1.084,1.084,0,0,1-1.033.65h-17.4a1.074,1.074,0,0,1-.9-0.43,1.138,1.138,0,0,1-.418-0.93c0-2.35-.01-4.69-0.121-7.04a1.106,1.106,0,0,1,.284-0.84,1.068,1.068,0,0,1,1.037-.65c6,0.12,12,.02,18,0.25a1.183,1.183,0,0,1,1.146,1.11,1.428,1.428,0,0,1,.055.38c-0.01,2.27-.126,4.53-0.361,6.79A1.3,1.3,0,0,1,549.19,1224.12Zm-17.435-6.75c0.059,1.65.076,3.29,0.08,4.93h15.343c0.137-1.57.217-3.15,0.246-4.73C542.2,1217.4,536.978,1217.45,531.755,1217.37Zm-1.65,9.79a1.2,1.2,0,0,1,.438-0.09h3.66a1.173,1.173,0,0,1,1.123,1.45,1.35,1.35,0,0,1,.058.38c0,1.26-.014,2.51-0.118,3.77a1.22,1.22,0,0,1-.946,1.12,1.154,1.154,0,0,1-.471.09c-1.182,0-2.363-.01-3.542-0.12a1.192,1.192,0,0,1-1-.71,1.109,1.109,0,0,1-.184-0.75c0.108-1.33.118-2.67,0.118-4.01A1.1,1.1,0,0,1,530.105,1227.16Zm2.872,4.28c0.028-.64.037-1.29,0.042-1.93H531.6c-0.006.63-.019,1.27-0.052,1.9Q532.261,1231.44,532.977,1231.44Zm-2.872,3.5a1.2,1.2,0,0,1,.438-0.08h3.66a1.17,1.17,0,0,1,1.123,1.45,1.227,1.227,0,0,1,.058.37c0,1.26-.014,2.52-0.118,3.77a1.22,1.22,0,0,1-.946,1.12,1.153,1.153,0,0,1-.471.1c-1.182,0-2.363-.01-3.542-0.12a1.2,1.2,0,0,1-1-.72,1.081,1.081,0,0,1-.184-0.74c0.108-1.34.118-2.68,0.118-4.02A1.105,1.105,0,0,1,530.105,1234.94Zm2.872,4.29c0.028-.65.037-1.29,0.042-1.94H531.6c-0.006.63-.019,1.27-0.052,1.9C532.022,1239.21,532.5,1239.22,532.977,1239.23Zm-2.872,3.49a1.2,1.2,0,0,1,.438-0.08h3.66a1.17,1.17,0,0,1,1.123,1.45,1.227,1.227,0,0,1,.058.37c0,1.26-.014,2.52-0.118,3.77a1.232,1.232,0,0,1-.946,1.13,1.348,1.348,0,0,1-.471.09c-1.182,0-2.363-.01-3.542-0.12a1.2,1.2,0,0,1-1-.72,1.066,1.066,0,0,1-.184-0.74c0.108-1.34.118-2.67,0.118-4.01A1.117,1.117,0,0,1,530.105,1242.72Zm2.872,4.29c0.028-.64.037-1.29,0.042-1.94H531.6c-0.006.64-.019,1.27-0.052,1.91Q532.261,1247.01,532.977,1247.01Zm4.212-19.85a1.194,1.194,0,0,1,.438-0.09h3.66a1.173,1.173,0,0,1,1.123,1.45,1.35,1.35,0,0,1,.058.38c0,1.26-.014,2.51-0.118,3.77a1.22,1.22,0,0,1-.946,1.12,1.161,1.161,0,0,1-.471.09c-1.182,0-2.363-.01-3.542-0.12a1.192,1.192,0,0,1-1-.71,1.115,1.115,0,0,1-.185-0.75c0.109-1.33.119-2.67,0.119-4.01A1.1,1.1,0,0,1,537.189,1227.16Zm2.872,4.28c0.028-.64.037-1.29,0.041-1.93h-1.421c-0.006.63-.02,1.27-0.052,1.9Q539.344,1231.44,540.061,1231.44Zm-2.872,3.5a1.2,1.2,0,0,1,.438-0.08h3.66a1.17,1.17,0,0,1,1.123,1.45,1.227,1.227,0,0,1,.058.37c0,1.26-.014,2.52-0.118,3.77a1.22,1.22,0,0,1-.946,1.12,1.16,1.16,0,0,1-.471.1c-1.182,0-2.363-.01-3.542-0.12a1.2,1.2,0,0,1-1-.72,1.086,1.086,0,0,1-.185-0.74c0.109-1.34.119-2.68,0.119-4.02A1.105,1.105,0,0,1,537.189,1234.94Zm2.872,4.29c0.028-.65.037-1.29,0.041-1.94h-1.421c-0.006.63-.02,1.27-0.052,1.9C539.106,1239.21,539.584,1239.22,540.061,1239.23Zm-2.872,3.49a1.2,1.2,0,0,1,.438-0.08h3.66a1.17,1.17,0,0,1,1.123,1.45,1.227,1.227,0,0,1,.058.37c0,1.26-.014,2.52-0.118,3.77a1.232,1.232,0,0,1-.946,1.13,1.357,1.357,0,0,1-.471.09c-1.182,0-2.363-.01-3.542-0.12a1.2,1.2,0,0,1-1-.72,1.072,1.072,0,0,1-.185-0.74c0.109-1.34.119-2.67,0.119-4.01A1.117,1.117,0,0,1,537.189,1242.72Zm2.872,4.29c0.028-.64.037-1.29,0.041-1.94h-1.421c-0.006.64-.02,1.27-0.052,1.91Q539.344,1247.01,540.061,1247.01Zm4.212-19.85a1.194,1.194,0,0,1,.438-0.09h3.66a1.174,1.174,0,0,1,1.123,1.45,1.35,1.35,0,0,1,.058.38c0,1.26-.014,2.51-0.118,3.77a1.221,1.221,0,0,1-.946,1.12,1.161,1.161,0,0,1-.471.09c-1.183,0-2.363-.01-3.542-0.12a1.192,1.192,0,0,1-1-.71,1.1,1.1,0,0,1-.185-0.75c0.109-1.33.118-2.67,0.118-4.01A1.1,1.1,0,0,1,544.273,1227.16Zm2.872,4.28c0.027-.64.037-1.29,0.041-1.93h-1.421c-0.007.63-.02,1.27-0.052,1.9Q546.429,1231.44,547.145,1231.44Zm-2.872,3.5a1.2,1.2,0,0,1,.438-0.08h3.66a1.17,1.17,0,0,1,1.123,1.45,1.227,1.227,0,0,1,.058.37c0,1.26-.014,2.52-0.118,3.77a1.221,1.221,0,0,1-.946,1.12,1.16,1.16,0,0,1-.471.1c-1.183,0-2.363-.01-3.542-0.12a1.2,1.2,0,0,1-1-.72,1.076,1.076,0,0,1-.185-0.74c0.109-1.34.118-2.68,0.118-4.02A1.106,1.106,0,0,1,544.273,1234.94Zm2.872,4.29c0.027-.65.037-1.29,0.041-1.94h-1.421c-0.007.63-.02,1.27-0.052,1.9C546.19,1239.21,546.667,1239.22,547.145,1239.23Zm-2.872,3.49a1.2,1.2,0,0,1,.438-0.08h3.66a1.17,1.17,0,0,1,1.123,1.45,1.227,1.227,0,0,1,.058.37c0,1.26-.014,2.52-0.118,3.77a1.233,1.233,0,0,1-.946,1.13,1.357,1.357,0,0,1-.471.09c-1.183,0-2.363-.01-3.542-0.12a1.2,1.2,0,0,1-1-.72,1.061,1.061,0,0,1-.185-0.74c0.109-1.34.118-2.67,0.118-4.01A1.117,1.117,0,0,1,544.273,1242.72Zm2.872,4.29c0.027-.64.037-1.29,0.041-1.94h-1.421c-0.007.64-.02,1.27-0.052,1.91Q546.429,1247.01,547.145,1247.01Z" transform="translate(-524 -1209)"/>
</svg>
