<svg xmlns="http://www.w3.org/2000/svg" width="48" height="48" viewBox="0 0 48 48">
  <defs>
    <style>
      .cls-1 {
        fill: #2d2f36;
        fill-rule: evenodd;
      }
    </style>
  </defs>
  <path id="company.svg" class="cls-1" d="M474,2049.84v37.57H442.671c-2.013,3.33-3.718,5.84-3.739,5.87l-1.167,1.72-1.168-1.72c-0.026-.03-2.648-3.9-5.234-8.41-3.609-6.3-5.363-10.65-5.363-13.31a11.772,11.772,0,0,1,15.907-11v-10.72h5.741V2047h20.7v2.83l5.647,0.01h0Zm-36.235,12.79a8.948,8.948,0,0,0-8.942,8.93c0,3.82,5.672,13.34,8.942,18.38,3.27-5.04,8.942-14.56,8.942-18.38A8.949,8.949,0,0,0,437.765,2062.63Zm33.412-9.97-5.647-.02v-2.82H450.471v2.84H444.73v9.44a11.724,11.724,0,0,1,4.8,9.46c0,2.62-1.7,6.88-5.2,13.03h12.358v-5.83h2.823v5.83h11.67v-31.93ZM459.507,2073h5.646v2.83h-5.646V2073Zm0-5.64h5.646v2.82h-5.646v-2.82Zm0-5.51h5.646v2.82h-5.646v-2.82Zm0-5.64h5.646v2.82h-5.646v-2.82Zm-8.47,16.79h5.646v2.83h-5.646V2073Zm0-5.64h5.646v2.82h-5.646v-2.82Zm0-5.51h5.646v2.82h-5.646v-2.82Zm0-5.64h5.646v2.82h-5.646v-2.82Zm-13.272,21a5.645,5.645,0,1,1,5.647-5.65A5.658,5.658,0,0,1,437.765,2077.21Zm0-8.47a2.82,2.82,0,1,0,2.824,2.82A2.828,2.828,0,0,0,437.765,2068.74Z" transform="translate(-426 -2047)"/>
</svg>
