<svg xmlns="http://www.w3.org/2000/svg" width="25.719" height="29.53" viewBox="0 0 25.719 29.53">
  <defs>
    <style>
      .cls-1 {
        fill: #ec3d73;
        fill-rule: evenodd;
      }
    </style>
  </defs>
  <path id="email.svg" class="cls-1" d="M992.155,6211H971.573a2.587,2.587,0,0,1-2.573-2.6v-15.58a0.881,0.881,0,0,1,.243-0.6s0,0,.008-0.01l3.179-3.2v-6.68a0.864,0.864,0,0,1,.858-0.87H990.44a0.864,0.864,0,0,1,.858.87v6.68l3.179,3.2a0.9,0.9,0,0,1,.251.61v15.58A2.591,2.591,0,0,1,992.155,6211Zm-0.355-1.73-6.861-6.92h-6.15l-6.861,6.92H991.8Zm-19.37-17.82-1.36,1.38,1.36,1.37v-2.75Zm-1.715,3.47v13.12l6.506-6.56Zm18.867-5.56h0v-6.17H974.145v6.17h0v6.57l4.644,4.68h6.15l4.643-4.68v-6.57Zm1.716,2.09v2.75l1.36-1.37Zm1.715,3.47-6.506,6.56,6.506,6.56v-13.12Zm-13.455-.29a4.405,4.405,0,0,0,4.328.21,0.856,0.856,0,0,1,1.138.42,0.87,0.87,0,0,1-.421,1.15,6.094,6.094,0,1,1,3.264-5.43,4.6,4.6,0,1,0-3.43,0v0.01a0.858,0.858,0,1,0,1.715-.01A4.288,4.288,0,1,0,979.558,6194.63Zm2.306-4.52a0.87,0.87,0,1,0,.845,1.01,0.965,0.965,0,0,1,.006-0.24A0.864,0.864,0,0,0,981.864,6190.11Z" transform="translate(-969 -6181.47)"/>
</svg>
