<svg xmlns="http://www.w3.org/2000/svg" width="43" height="31" viewBox="0 0 43 31">
  <defs>
    <style>
      .cls-1 {
        fill: #fff;
        fill-rule: evenodd;
      }
    </style>
  </defs>
  <path id="file.svg" class="cls-1" d="M1402.66,1232.18a3.48,3.48,0,0,0-1.51-1.55,4.683,4.683,0,0,0-2.23-.54h-4.32v-3.52a4.706,4.706,0,0,0-1.49-3.48,4.917,4.917,0,0,0-3.56-1.46H1377.3v-0.7a4.706,4.706,0,0,0-1.49-3.48,4.885,4.885,0,0,0-3.55-1.45h-7.21a4.907,4.907,0,0,0-3.56,1.45,4.706,4.706,0,0,0-1.49,3.48v21.14a4.706,4.706,0,0,0,1.49,3.48,4.907,4.907,0,0,0,3.56,1.45h24.5a8.253,8.253,0,0,0,5.77-2.68l6.64-8a4.156,4.156,0,0,0,1.04-2.64A3.5,3.5,0,0,0,1402.66,1232.18Zm-39.77-11.25a2.017,2.017,0,0,1,.63-1.5,2.1,2.1,0,0,1,1.53-.61h7.21a2.1,2.1,0,0,1,1.53.61,2.017,2.017,0,0,1,.63,1.5v1.41a2.017,2.017,0,0,0,.63,1.5,2.1,2.1,0,0,0,1.53.61h12.97a2.113,2.113,0,0,1,1.53.62,2.017,2.017,0,0,1,.63,1.5v3.52h-17.29a7.42,7.42,0,0,0-3.16.76,7.6,7.6,0,0,0-2.61,1.93l-5.76,6.93v-18.78Zm36.82,13.61-6.62,7.99a4.463,4.463,0,0,1-1.6,1.17,4.644,4.644,0,0,1-1.94.48h-24.5c-0.8,0-1.19-.25-1.19-0.77a1.58,1.58,0,0,1,.4-0.88l6.62-7.99a5.182,5.182,0,0,1,3.54-1.63h24.5c0.8,0,1.19.26,1.19,0.77A1.407,1.407,0,0,1,1399.71,1234.54Z" transform="translate(-1360 -1216)"/>
</svg>
