<svg xmlns="http://www.w3.org/2000/svg" width="44" height="44" viewBox="0 0 44 44">
  <defs>
    <style>
      .cls-1 {
        fill: #fff;
        fill-rule: evenodd;
      }
    </style>
  </defs>
  <path id="hand.svg" class="cls-1" d="M1401.23,1533.98l-6.19,8.25a9.084,9.084,0,0,1-7.22,3.61h-15.23a3.865,3.865,0,0,1-2.14,3.6l-2.85,1.42a1.291,1.291,0,0,1-1.73-.57l-7.73-15.47a1.291,1.291,0,0,1,.57-1.73l2.85-1.43a3.869,3.869,0,0,1,3.55.05l2.48-2.19a9.047,9.047,0,0,1,11.89-.03c0.89,0.69,1.06.88,1.58,0.88h6.76a3.874,3.874,0,0,1,3.69,2.73l3.79-4.07A3.868,3.868,0,0,1,1401.23,1533.98Zm-36.79.57a1.275,1.275,0,0,0-1.72-.58l-1.7.85,6.58,13.16,1.7-.85a1.291,1.291,0,0,0,.57-1.73Zm34.55-3.85a1.29,1.29,0,0,0-1.8.09l-5.68,6.09a3.89,3.89,0,0,1-2.83,1.23h-7.44a1.29,1.29,0,0,1,0-2.58h6.58a1.29,1.29,0,0,0,0-2.58h-6.76a4.546,4.546,0,0,1-3.25-1.49,6.443,6.443,0,0,0-8.51,0l-2.44,2.14,4.83,9.67h16.13a6.508,6.508,0,0,0,5.16-2.58l6.18-8.25A1.287,1.287,0,0,0,1398.99,1530.7Zm-11.17-5.48h-12.98a1.293,1.293,0,0,1-1.29-1.29v-1.29a7.864,7.864,0,0,1,4.06-6.83,5.075,5.075,0,0,1-1.48-3.57,5.311,5.311,0,0,1,5.24-5.24,5.222,5.222,0,0,1,5.16,5.24,5.123,5.123,0,0,1-1.43,3.56,7.852,7.852,0,0,1,4.01,6.84v1.29A1.293,1.293,0,0,1,1387.82,1525.22Zm-6.45-15.64a2.732,2.732,0,0,0-2.66,2.66,2.656,2.656,0,0,0,2.66,2.58,2.58,2.58,0,0,0,2.58-2.58A2.656,2.656,0,0,0,1381.37,1509.58Zm0,7.82a5.311,5.311,0,0,0-5.24,5.24h10.4A5.2,5.2,0,0,0,1381.37,1517.4Z" transform="translate(-1358 -1507)"/>
</svg>
