<svg id="ins.svg" xmlns="http://www.w3.org/2000/svg" width="29" height="29" viewBox="0 0 29 29">
  <defs>
    <style>
      .cls-1 {
        fill: #ec3d73;
        fill-rule: evenodd;
      }
    </style>
  </defs>
  <path id="Эллипс_4_копия" data-name="Эллипс 4 копия" class="cls-1" d="M434.5,6307a14.5,14.5,0,1,1-14.5,14.5A14.5,14.5,0,0,1,434.5,6307Zm0.016,0.69a13.81,13.81,0,1,1-13.8,13.81A13.8,13.8,0,0,1,434.516,6307.69Z" transform="translate(-420 -6307)"/>
  <path id="ins.svg-2" data-name="ins.svg" class="cls-1" d="M438.7,6328.71h-8.63a2.688,2.688,0,0,1-2.718-2.65v-8.43a2.688,2.688,0,0,1,2.718-2.65h8.63a2.688,2.688,0,0,1,2.718,2.65v8.43A2.688,2.688,0,0,1,438.7,6328.71Zm-2.307-8.27a2.509,2.509,0,0,0-4.016-.01,2.388,2.388,0,0,0-.468,1.41,2.477,2.477,0,0,0,4.952,0A2.342,2.342,0,0,0,436.388,6320.44Zm3.4-3.58v-0.3h-0.311l-2.074.01,0.008,2.33,2.377-.01v-2.03Zm0.256,3.58h-2.1a3.61,3.61,0,0,1,.285,1.4,3.848,3.848,0,0,1-7.694,0,3.627,3.627,0,0,1,.283-1.4h-2.1v5.62a1.332,1.332,0,0,0,1.348,1.31h8.629a1.332,1.332,0,0,0,1.348-1.31v-5.62Z" transform="translate(-420 -6307)"/>
</svg>
