<svg xmlns="http://www.w3.org/2000/svg" width="36" height="37" viewBox="0 0 36 37">
  <defs>
    <style>
      .cls-1 {
        fill: #fff;
        fill-rule: evenodd;
      }
    </style>
  </defs>
  <path id="list.svg" class="cls-1" d="M970.825,1529.62v-16.64H945.981v31.04h11.428a1.49,1.49,0,1,1,0,2.98H944.491a1.5,1.5,0,0,1-1.491-1.49v-34.02a1.5,1.5,0,0,1,1.491-1.49h27.824a1.5,1.5,0,0,1,1.491,1.49v18.13A1.491,1.491,0,0,1,970.825,1529.62Zm7.676,3.62a1.5,1.5,0,0,0-2.111.13l-8.174,9.09-4.1-3.95a1.493,1.493,0,1,0-2.062,2.16l5.217,5.01a1.443,1.443,0,0,0,1.043.43h0.05a1.5,1.5,0,0,0,1.043-.5l9.193-10.23A1.5,1.5,0,0,0,978.5,1533.24Zm-13.142-14.55H951.944a1.49,1.49,0,1,0,0,2.98h13.415A1.49,1.49,0,1,0,965.359,1518.69Zm1.491,9.69a1.5,1.5,0,0,0-1.491-1.49H951.944a1.49,1.49,0,1,0,0,2.98h13.415A1.5,1.5,0,0,0,966.85,1528.38Zm-14.906,6.45a1.49,1.49,0,1,0,0,2.98h3.975a1.49,1.49,0,0,0,0-2.98h-3.975Z" transform="translate(-943 -1510)"/>
</svg>
