<svg xmlns="http://www.w3.org/2000/svg" width="19.94" height="28.72" viewBox="0 0 19.94 28.72">
  <defs>
    <style>
      .cls-1 {
        fill: #ec3d73;
        fill-rule: evenodd;
      }
    </style>
  </defs>
  <path id="loc.svg" class="cls-1" d="M1279.97,6181a10.116,10.116,0,0,0-8.48,15.4l7.91,12.91a0.839,0.839,0,0,0,.71.4h0.01a0.819,0.819,0,0,0,.7-0.41l7.72-13.04A10.124,10.124,0,0,0,1279.97,6181Zm7.14,14.4-7.01,11.85-7.2-11.74A8.319,8.319,0,1,1,1287.11,6195.4Zm-7.14-9.35a5.045,5.045,0,1,0,4.99,5.04A5.013,5.013,0,0,0,1279.97,6186.05Zm0,8.42a3.375,3.375,0,1,1,3.33-3.38A3.359,3.359,0,0,1,1279.97,6194.47Z" transform="translate(-1270 -6181)"/>
</svg>
