<svg xmlns="http://www.w3.org/2000/svg" width="40" height="42" viewBox="0 0 40 42">
  <defs>
    <style>
      .cls-1 {
        fill: #fff;
        fill-rule: evenodd;
      }
    </style>
  </defs>
  <path id="percent.svg" class="cls-1" d="M549.709,1549a12.334,12.334,0,0,1-5.328-1.2H523.443a1.437,1.437,0,0,1-1.444-1.43v-37.94a1.437,1.437,0,0,1,1.444-1.43h25.57a1.437,1.437,0,0,1,1.444,1.43v16.28A12.153,12.153,0,0,1,549.709,1549Zm-2.14-39.14H524.887v35.08h15.664a12.031,12.031,0,0,1-3.134-8.1,12.219,12.219,0,0,1,10.152-11.97v-15.01Zm2.14,17.68a9.3,9.3,0,1,0,9.4,9.3A9.362,9.362,0,0,0,549.709,1527.54Zm3.216,13.91a1.445,1.445,0,0,1-1.021-.42,1.408,1.408,0,0,1-.423-1.01,1.443,1.443,0,0,1,.423-1.01,1.451,1.451,0,0,1,2.042,0,1.452,1.452,0,0,1,.423,1.01,1.417,1.417,0,0,1-.423,1.01A1.446,1.446,0,0,1,552.925,1541.45Zm-5.391-.44a1.451,1.451,0,0,1-2.042,0,1.417,1.417,0,0,1,0-2.02l6.392-6.32a1.451,1.451,0,0,1,2.042,0,1.417,1.417,0,0,1,0,2.02Zm-1.041-5.92a1.445,1.445,0,0,1-1.021-.42,1.417,1.417,0,0,1,0-2.02,1.452,1.452,0,0,1,2.043,0,1.42,1.42,0,0,1,0,2.02A1.449,1.449,0,0,1,546.493,1535.09ZM529.67,1523.6a1.435,1.435,0,0,1,1.444-1.42h10.228a1.425,1.425,0,1,1,0,2.85H531.114A1.437,1.437,0,0,1,529.67,1523.6Zm11.672-6.16H531.114a1.425,1.425,0,1,1,0-2.85h10.228A1.425,1.425,0,1,1,541.342,1517.44Zm-10.228,12.32h2.557a1.43,1.43,0,1,1,0,2.86h-2.557A1.43,1.43,0,1,1,531.114,1529.76Z" transform="translate(-522 -1507)"/>
</svg>
