<svg xmlns="http://www.w3.org/2000/svg" width="46" height="46" viewBox="0 0 46 46">
  <defs>
    <style>
      .cls-1 {
        fill: #2d2f36;
        fill-rule: evenodd;
      }
    </style>
  </defs>
  <path id="rocet.svg" class="cls-1" d="M1102.28,2061.12c-0.16.59-.33,1.17-0.53,1.74-0.02.05-.03,0.1-0.05,0.15a22.71,22.71,0,0,1-5.32,8.43l-0.01.01-0.01.01c-0.01.01-.03,0.02-0.04,0.03a0.085,0.085,0,0,1-.03.03l-3.93,3.38a19.951,19.951,0,0,1-9.9,17.42,1.148,1.148,0,0,1-.56.15,1.117,1.117,0,0,1-1.07-.83l-1.56-6.14-3.27,1.2a4.417,4.417,0,0,1-4.65-1.03l-6.03-6.02a4.447,4.447,0,0,1-1.02-4.65l1.2-3.27-6.14-1.56a1.1,1.1,0,0,1-.74-0.64,1.091,1.091,0,0,1,.06-0.98,19.915,19.915,0,0,1,17.41-9.91l3.39-3.93a0.085,0.085,0,0,1,.03-0.03c0.01-.01.01-0.03,0.02-0.04a0.035,0.035,0,0,0,.02-0.01,0.01,0.01,0,0,1,.01-0.01,22.56,22.56,0,0,1,8.43-5.31,0.843,0.843,0,0,1,.14-0.06c0.58-.2,1.16-0.37,1.75-0.53a22.8,22.8,0,0,1,11.57.05,1.1,1.1,0,0,1,.78.78A22.8,22.8,0,0,1,1102.28,2061.12Zm-19.69,28.49a17.475,17.475,0,0,0,2.39-2,17.725,17.725,0,0,0,5.08-10.73l-8.79,7.55Zm-7.35-4.99,2.79-1.02-1.42-1.43-3.45,2.15A2.211,2.211,0,0,0,1075.24,2084.62Zm-3.7-1.89,3.46-2.16-1.5-1.51-2.82,2.82Zm-2.42-2.41,2.82-2.82-1.51-1.5-2.16,3.46Zm-2.45-2.48,2.16-3.45-1.43-1.42-1.02,2.79A2.235,2.235,0,0,0,1066.67,2077.84Zm-3.28-11.82a17.475,17.475,0,0,0-2,2.39l5.18,1.32,7.55-8.79A17.725,17.725,0,0,0,1063.39,2066.02Zm24.76-14.42a20.549,20.549,0,0,0-7.03,4.58l-3.69,4.3c-0.01.01-.01,0.02-0.02,0.03l-8.94,10.4,11.62,11.62,14.73-12.65a20.549,20.549,0,0,0,4.58-7.03Zm12.1-.85a20.565,20.565,0,0,0-9.74.09l9.65,9.65A20.565,20.565,0,0,0,1100.25,2050.75Zm-14.57,21.39a6.815,6.815,0,1,1,4.81-2A6.753,6.753,0,0,1,1085.68,2072.14Zm3.25-10.07a4.605,4.605,0,1,0,0,6.51A4.578,4.578,0,0,0,1088.93,2062.07Zm-28.74,23.43a1.083,1.083,0,0,1-.78-0.33,1.1,1.1,0,0,1,0-1.56l2.27-2.27a1.1,1.1,0,1,1,1.56,1.56l-2.27,2.27A1.1,1.1,0,0,1,1060.19,2085.5Zm6.26-.95a1.1,1.1,0,0,1,0,1.56l-7.57,7.57a1.1,1.1,0,0,1-.78.32,1.132,1.132,0,0,1-.78-0.32,1.117,1.117,0,0,1,0-1.57l7.57-7.56A1.1,1.1,0,0,1,1066.45,2084.55Zm1.65,3.21a1.1,1.1,0,1,1,1.56,1.56l-3.78,3.78a1.107,1.107,0,0,1-1.57-1.56Z" transform="translate(-1057 -2048)"/>
</svg>
