<svg xmlns="http://www.w3.org/2000/svg" width="45" height="40" viewBox="0 0 45 40">
  <defs>
    <style>
      .cls-1 {
        fill: #fff;
        fill-rule: evenodd;
      }
    </style>
  </defs>
  <path id="suit.svg" class="cls-1" d="M979.045,1220h-6.68v-4a3.979,3.979,0,0,0-3.955-4H952.59a3.979,3.979,0,0,0-3.955,4v4h-6.68a3.979,3.979,0,0,0-3.955,4v7.43a3.985,3.985,0,0,0,2.637,3.79V1248a4.049,4.049,0,0,0,4.043,4h31.728a3.979,3.979,0,0,0,3.955-4v-12.78a3.985,3.985,0,0,0,2.637-3.79V1224A3.979,3.979,0,0,0,979.045,1220Zm-27.774-4a1.322,1.322,0,0,1,1.319-1.33h15.82a1.322,1.322,0,0,1,1.319,1.33v4H951.271v-4Zm7.911,19.85v-13.18h2.636v13.18Q960.5,1235.88,959.182,1235.85Zm2.636,2.82V1240a1.318,1.318,0,1,1-2.636,0v-1.33h2.636Zm-20.3-5.96a1.352,1.352,0,0,1-.876-1.28V1224a1.321,1.321,0,0,1,1.318-1.33h14.59v13.06A58.271,58.271,0,0,1,941.513,1232.71ZM977.727,1248a1.322,1.322,0,0,1-1.319,1.33H944.68a1.405,1.405,0,0,1-1.407-1.33v-11.94a60.039,60.039,0,0,0,13.272,2.34v1.6a3.955,3.955,0,1,0,7.91,0v-1.6a60.039,60.039,0,0,0,13.272-2.34V1248Zm2.636-16.57a1.352,1.352,0,0,1-.876,1.28,58.271,58.271,0,0,1-15.032,3.02v-13.06h14.59a1.321,1.321,0,0,1,1.318,1.33v7.43Z" transform="translate(-938 -1212)"/>
</svg>
