<svg xmlns="http://www.w3.org/2000/svg" width="18" height="18" viewBox="0 0 18 18">
  <defs>
    <style>
      .cls-1 {
        fill: #ec3d73;
        fill-rule: evenodd;
      }
    </style>
  </defs>
  <path id="tell.svg" class="cls-1" d="M1145.52,110.273l-2.24-2.238a1.575,1.575,0,0,0-2.23,0l-1.02,1.017a1.193,1.193,0,0,1-1.69,0l-4.41-4.413a1.2,1.2,0,0,1,0-1.7c0.16-.164.63-0.634,1.02-1.017a1.59,1.59,0,0,0,0-2.24l-2.24-2.231a1.576,1.576,0,0,0-2.23,0c-0.46.457-.61,0.6-0.82,0.809a5.723,5.723,0,0,0,0,8.071l6.98,6.992a5.69,5.69,0,0,0,8.06,0l0.82-.814A1.6,1.6,0,0,0,1145.52,110.273ZM1131.22,98.2a0.533,0.533,0,0,1,.75,0l2.23,2.231a0.52,0.52,0,0,1,0,.746l-0.37.374-2.98-2.983Zm6.17,14.378-6.98-6.992a4.636,4.636,0,0,1-.29-6.26l2.97,2.974a2.259,2.259,0,0,0,.09,3.082l4.41,4.414h0a2.249,2.249,0,0,0,3.08.1l2.97,2.974A4.617,4.617,0,0,1,1137.39,112.58Zm7.38-.814-0.37.373-2.98-2.985,0.37-.373a0.534,0.534,0,0,1,.75,0l2.23,2.239A0.52,0.52,0,0,1,1144.77,111.766Z" transform="translate(-1128 -97)"/>
</svg>
