<svg xmlns="http://www.w3.org/2000/svg" width="50.938" height="51.03" viewBox="0 0 50.938 51.03">
  <defs>
    <style>
      .cls-1 {
        fill: #ec3d73;
        fill-rule: evenodd;
      }
    </style>
  </defs>
  <path id="tell-pink.svg" class="cls-1" d="M399.633,5093.61l-6.336-6.34a4.478,4.478,0,0,0-6.335,0l-2.88,2.88a3.4,3.4,0,0,1-4.8,0L366.8,5077.64a3.392,3.392,0,0,1,0-4.8c0.464-.47,1.795-1.8,2.879-2.88a4.493,4.493,0,0,0,0-6.35l-6.334-6.32a4.472,4.472,0,0,0-6.33,0c-1.3,1.29-1.724,1.71-2.309,2.29a16.2,16.2,0,0,0,0,22.87l19.777,19.81a16.133,16.133,0,0,0,22.845,0l2.3-2.31A4.492,4.492,0,0,0,399.633,5093.61Zm-40.51-34.21a1.491,1.491,0,0,1,2.113.01l6.334,6.32a1.491,1.491,0,0,1,0,2.11l-1.056,1.06-8.442-8.45Zm17.473,40.74-19.777-19.81A13.144,13.144,0,0,1,356,5062.6l8.417,8.42a6.393,6.393,0,0,0,.278,8.74l12.481,12.5h0a6.363,6.363,0,0,0,8.725.28l8.417,8.43A13.088,13.088,0,0,1,376.6,5100.14Zm20.925-2.3-1.056,1.05-8.447-8.45,1.056-1.06a1.5,1.5,0,0,1,2.111,0l6.336,6.34A1.505,1.505,0,0,1,397.521,5097.84Z" transform="translate(-350 -5055.97)"/>
</svg>
