<svg id="vk.svg" xmlns="http://www.w3.org/2000/svg" width="29" height="29" viewBox="0 0 29 29">
  <defs>
    <style>
      .cls-1 {
        fill: #fff;
        fill-rule: evenodd;
      }
    </style>
  </defs>
  <path id="Эллипс_4_копия_2" data-name="Эллипс 4 копия 2" class="cls-1" d="M399.687,6307a14.5,14.5,0,1,1-14.5,14.5A14.5,14.5,0,0,1,399.687,6307Zm0,0.69a13.81,13.81,0,1,1-13.812,13.81A13.809,13.809,0,0,1,399.687,6307.69Z" transform="translate(-385.188 -6307)"/>
  <path id="w.svg" class="cls-1" d="M405.43,6323.15c0.577,0.55,1.187,1.07,1.7,1.67a4.932,4.932,0,0,1,.61.86,0.612,0.612,0,0,1-.386.96h-2.534a2.011,2.011,0,0,1-1.614-.64c-0.351-.35-0.676-0.72-1.014-1.08a2.317,2.317,0,0,0-.456-0.4,0.536,0.536,0,0,0-.844.2,2.569,2.569,0,0,0-.266,1.16,0.666,0.666,0,0,1-.808.76,6.608,6.608,0,0,1-3.626-.76,7.959,7.959,0,0,1-2.441-2.23,29.671,29.671,0,0,1-3.212-5.59c-0.2-.44-0.055-0.68.443-0.69q1.24-.015,2.482,0a0.739,0.739,0,0,1,.688.51,15.058,15.058,0,0,0,1.682,3.04,2.685,2.685,0,0,0,.636.68,0.387,0.387,0,0,0,.655-0.19,1.99,1.99,0,0,0,.146-0.64,9.247,9.247,0,0,0-.04-2.23,0.947,0.947,0,0,0-.814-0.86c-0.242-.04-0.206-0.13-0.088-0.26a0.9,0.9,0,0,1,.777-0.38h2.864a0.671,0.671,0,0,1,.613.73l0,3.1a0.919,0.919,0,0,0,.4.8,0.569,0.569,0,0,0,.572-0.28,9.583,9.583,0,0,0,1.613-2.42c0.194-.38.361-0.78,0.523-1.17a0.619,0.619,0,0,1,.647-0.44l2.757,0.01a1.983,1.983,0,0,1,.244.01c0.465,0.08.592,0.27,0.448,0.72a6.674,6.674,0,0,1-1.1,1.85c-0.46.62-.951,1.22-1.407,1.85A0.828,0.828,0,0,0,405.43,6323.15Z" transform="translate(-385.188 -6307)"/>
</svg>
