<svg xmlns="http://www.w3.org/2000/svg" width="31" height="31" viewBox="0 0 31 31">
  <defs>
    <style>
      .cls-1 {
        fill: #ec3d73;
        fill-rule: evenodd;
      }
    </style>
  </defs>
  <path id="wtime.svg" class="cls-1" d="M677.045,6192.27a0.7,0.7,0,0,1-.7-0.7,0.7,0.7,0,1,1,1.409,0A0.7,0.7,0,0,1,677.045,6192.27Zm0,9.86a0.7,0.7,0,1,1,.705-0.7A0.7,0.7,0,0,1,677.045,6202.13Zm4.227,2.82a0.7,0.7,0,1,1-.705-0.7A0.709,0.709,0,0,1,681.272,6204.95Zm-0.7-17.61a0.705,0.705,0,1,1-.7.7A0.707,0.707,0,0,1,680.568,6187.34Zm13.386,13.39a0.7,0.7,0,0,1,.7.7,0.7,0.7,0,1,1-1.409,0A0.7,0.7,0,0,1,693.954,6200.73Zm0-9.87a0.708,0.708,0,0,1,.7.71,0.7,0.7,0,0,1-1.409,0A0.709,0.709,0,0,1,693.954,6190.86Zm-5.5-6.69a12.682,12.682,0,1,1-2.959-.35,0.663,0.663,0,0,1,.7.7v2.12a0.7,0.7,0,0,1-1.409,0v-1.41a11.36,11.36,0,0,0-10.568,10.56h1.409a0.672,0.672,0,0,1,.705.71,0.664,0.664,0,0,1-.705.7H674.3a11.229,11.229,0,0,0,10.5,10.5v-1.34a0.7,0.7,0,0,1,1.409,0v1.34a11.229,11.229,0,0,0,10.5-10.5h-1.339a0.663,0.663,0,0,1-.7-0.7,0.671,0.671,0,0,1,.7-0.71h1.409a11.394,11.394,0,0,0-8.665-10.28A0.693,0.693,0,1,1,688.459,6184.17Zm1.268,3.87a0.7,0.7,0,0,1,1.409,0A0.7,0.7,0,1,1,689.727,6188.04Zm1.412,16.92a0.7,0.7,0,0,1-1.409,0A0.7,0.7,0,1,1,691.139,6204.96Zm-5.639-14.8a0.663,0.663,0,0,1,.7.7v3.67a2.043,2.043,0,0,1,1.409,1.97,2,2,0,0,1-.211.92l4.227,4.22a0.685,0.685,0,0,1,0,.99,0.684,0.684,0,0,1-.986,0l-4.227-4.23a1.962,1.962,0,0,1-.916.21,2.072,2.072,0,0,1-2.114-2.11,2.044,2.044,0,0,1,1.409-1.97v-3.67A0.664,0.664,0,0,1,685.5,6190.16Zm0,7.04a0.663,0.663,0,0,0,.7-0.7,0.7,0.7,0,1,0-1.409,0A0.664,0.664,0,0,0,685.5,6197.2Zm2.959,14.52a0.682,0.682,0,0,1-.846-0.57,0.727,0.727,0,0,1,.564-0.84,13.982,13.982,0,1,0-2.677.28,0.705,0.705,0,0,1,0,1.41A15.471,15.471,0,1,1,688.459,6211.72Z" transform="translate(-670 -6181)"/>
</svg>
